<svg width="186" height="254" viewBox="0 0 186 254" fill="none" xmlns="http://www.w3.org/2000/svg">
<path d="M33.8551 9.99847C30.1772 15.3081 25.1802 23.9236 22.311 35.5271C20.0887 44.5153 19.8679 52.3659 20.1582 58.0433C26.1314 56.5377 32.7104 55.1517 39.8412 54.0461C47.5977 52.8436 54.8406 52.1539 61.446 51.8027C59.9023 46.1591 57.1535 38.5135 52.0686 30.378C45.947 20.5826 38.8923 14.0013 33.8547 9.99844L33.8551 9.99847Z" fill="#EA9127" stroke="white" stroke-width="20" stroke-linejoin="round"/>
<path d="M171.034 28.7297C165.505 31.03 157.614 35.0471 149.601 41.9879C141.454 49.0441 136.305 56.4159 133.239 61.6148C139.299 63.6565 145.853 66.1633 152.751 69.2561C159.612 72.3322 165.814 75.5407 171.346 78.6897C173.261 73.0665 175.512 64.3025 175.406 53.4206C175.304 42.8037 172.997 34.2655 171.034 28.7297L171.034 28.7297Z" fill="#EA9127" stroke="white" stroke-width="20" stroke-linejoin="round"/>
<path d="M18.9948 65.8441C17.1904 74.9798 15.716 86.3248 15.719 99.3655C15.7214 113.265 17.4012 125.277 19.3978 134.8C29.0863 117.075 39.9346 106.477 48.4696 99.9452C56.2546 93.9869 64.6624 89.4619 68.9567 79.1784C72.255 71.2798 71.6998 63.4017 70.6222 57.7774C63.8979 57.7973 56.3334 58.2122 48.1175 59.3184C36.9299 60.8247 27.1471 63.2609 18.9948 65.8441Z" fill="#E39334" stroke="white" stroke-width="20" stroke-linejoin="round"/>
<path d="M77.3836 57.8245C78.0778 61.4524 78.7517 67.4106 77.3688 74.5179C76.8422 77.226 75.6204 83.2035 71.5413 89.3372C66.3876 97.0876 61.7116 97.5091 50.026 108.529C47.0282 111.356 44.7213 113.794 43.2994 115.343C57.7665 124.526 72.2332 133.709 86.7002 142.892C94.4713 139.72 130.214 124.213 139.665 89.5363C141.03 84.5306 142.034 78.4364 141.933 71.3117C132.58 67.5257 120.911 63.6863 107.213 61.0631C96.1143 58.9379 86.0285 58.0602 77.3832 57.8252L77.3836 57.8245Z" fill="#F6D365" stroke="white" stroke-width="20" stroke-linejoin="round"/>
<path d="M170.943 85.663C171.029 90.8399 170.823 96.413 170.181 102.316C167.819 124.022 160.504 141.481 153.775 153.765C153.854 152.741 154.555 140.835 144.841 133.025C135.575 125.575 124.725 128.197 123.563 128.5C128.217 124.241 134.392 117.571 139.534 108.091C147.051 94.2326 148.615 81.267 148.934 73.9338C156.271 77.8437 163.607 81.7535 170.943 85.6634L170.943 85.663Z" fill="#EA9127" stroke="white" stroke-width="20" stroke-linejoin="round"/>
<path d="M20.4248 142.118C29.1257 162.59 37.8267 183.062 46.5281 203.534C53.2156 206.918 63.5334 211.173 76.7704 213.065C90.7346 215.06 102.377 213.629 109.907 212.106C123.695 194.618 137.483 177.131 151.271 159.643C147.288 160.301 142.085 160.964 135.97 161.221C130.811 161.437 124.526 161.384 116.354 160.523C100.1 158.812 99.4921 156.338 84.3886 154.306C70.7938 152.478 70.5334 154.38 55.1152 152.059C45.9328 150.677 39.0856 148.958 32.991 146.971C27.8385 145.29 23.5803 143.535 20.4251 142.118L20.4248 142.118Z" fill="#F6D365" stroke="white" stroke-width="20" stroke-linejoin="round"/>
<path d="M78.7807 149.654C75.1324 146.655 70.1546 142.713 64.0366 138.303C60.7576 135.94 58.1708 134.178 55.3501 132.259C51.1849 129.425 45.732 125.795 39.2058 121.663C38.0632 123.472 36.1155 127.091 35.639 132.075C35.221 136.447 36.1186 139.949 36.782 141.913C42.1107 142.25 47.8747 142.852 53.9938 143.837C63.2725 145.33 71.5733 147.414 78.781 149.654L78.7807 149.654Z" fill="#532322" stroke="white" stroke-width="20" stroke-linejoin="round"/>
<path d="M91.9539 151.448C99.857 147.945 108.488 144.49 117.825 141.261C124.551 138.935 131.049 136.932 137.266 135.203C137.891 137.252 138.877 141.493 137.785 146.659C136.932 150.693 135.167 153.612 133.988 155.258C128.751 154.121 122.984 153.125 116.738 152.424C107.612 151.4 99.2725 151.207 91.9539 151.448Z" fill="#532322" stroke="white" stroke-width="20" stroke-linejoin="round"/>
<path d="M53.7229 214.52C59.5946 216.67 67.2009 218.875 76.2449 220.1C85.3965 221.339 93.3987 221.221 99.6749 220.693C90.7778 228.455 81.881 236.217 72.9842 243.978C66.5638 234.159 60.143 224.34 53.7229 214.52Z" fill="#532322" stroke="white" stroke-width="20" stroke-linejoin="round"/>
<path d="M91.7834 151.465C96.1049 149.56 101.961 147.106 109.041 144.508C112.836 143.116 115.801 142.116 119.035 141.028C123.81 139.421 130.04 137.395 137.438 135.175C138.051 137.224 138.952 141.234 138.067 146.162C137.291 150.486 135.483 153.616 134.316 155.328C129.093 154.217 123.38 153.243 117.222 152.543C107.884 151.481 99.3287 151.251 91.784 151.466L91.7834 151.465Z" fill="#532322" stroke="white" stroke-width="20" stroke-linejoin="round"/>
<path d="M19.3963 134.799C16.5711 119.941 14.8673 101.808 16.7298 81.4033C17.2309 75.9132 17.9514 70.6865 18.8255 65.74C26.7855 63.2808 36.2504 60.9641 47.0199 59.4696C55.6635 58.2701 63.601 57.8146 70.621 57.7773C68.8691 60.7295 65.906 65.2379 61.4199 69.9684C48.4364 83.6607 36.9068 84.2339 28.5891 92.2294C22.4093 98.1704 16.3981 109.752 19.3966 134.799L19.3963 134.799Z" fill="#CC5520" stroke="white" stroke-width="20" stroke-linejoin="round"/>
<path d="M125.745 115.487C119.282 113.321 108.353 108.674 98.1606 98.6695C82.3114 83.1141 78.4561 64.6352 77.381 57.8246C86.3792 58.0691 97.052 59.0141 108.868 61.3885C121.879 64.0027 132.986 67.6892 141.931 71.3111C141.99 76.1529 141.545 82.4818 139.598 89.5852C136.2 101.984 129.894 110.659 125.745 115.486L125.745 115.487Z" fill="#CC5520" stroke="white" stroke-width="20" stroke-linejoin="round"/>
<path d="M148.931 73.9334C156.267 77.8433 163.603 81.7531 170.939 85.663C171.047 93.4831 170.51 102.904 168.486 113.376C165.145 130.663 159.01 144.316 153.772 153.765C155.396 150.442 168.052 123.561 154.749 102.686C152.843 99.695 150.022 96.2274 145.774 92.9484C146.381 90.8841 146.945 88.6538 147.427 86.2658C148.337 81.761 148.77 77.6046 148.931 73.9338L148.931 73.9334Z" fill="#CC5520" stroke="white" stroke-width="20" stroke-linejoin="round"/>
<path d="M133.239 61.6148C136.204 56.5925 140.899 49.8982 148.044 43.3732C156.575 35.5828 165.15 31.1828 171.034 28.7297C172.893 33.9883 174.845 41.3256 175.304 50.2294C175.937 62.5262 173.447 72.4766 171.346 78.6894C171.336 70.0102 166.555 62.0626 158.982 58.1803C150.675 53.922 140.407 55.2722 133.239 61.6148Z" fill="#CC5520" stroke="white" stroke-width="20" stroke-linejoin="round"/>
<path d="M20.1604 58.0435C19.8663 52.2953 20.0903 44.1866 22.4769 34.8788C25.3716 23.5891 30.2525 15.199 33.8573 9.99867C38.3514 13.5683 44.0287 18.8542 49.315 26.2575C56.2739 36.0034 59.6929 45.4091 61.4486 51.803C56.2737 43.2486 46.3192 38.9558 36.9656 41.1051C28.7369 42.9959 22.2107 49.5878 20.1608 58.0435L20.1604 58.0435Z" fill="#CC5520" stroke="white" stroke-width="20" stroke-linejoin="round"/>
<path d="M46.528 203.534C37.8271 183.062 29.1261 162.59 20.4248 142.118C24.8492 152.644 30.603 158.813 34.7753 162.388C60.6845 184.584 103.716 173.655 126.046 167.959C137.306 165.087 146.105 161.766 151.217 159.689C137.447 177.161 123.677 194.633 109.907 212.106C102.527 213.599 91.2598 214.989 77.7449 213.197C63.9782 211.372 53.3031 206.963 46.5277 203.534L46.528 203.534Z" fill="#EA9127" stroke="white" stroke-width="20" stroke-linejoin="round"/>
<path d="M77.3824 57.829C78.1946 61.7655 79.0204 68.5217 77.0797 76.4634C76.4345 79.1042 75.1045 85.1723 70.4002 90.9459C66.7149 95.4685 64.0879 96.778 57.6929 101.896C54.0003 104.852 48.9174 109.259 43.299 115.346C48.6706 118.073 55.0177 120.692 62.3122 122.658C87.0197 129.32 108.64 124.742 120.479 121.139C122.235 119.256 123.99 117.374 125.746 115.49C115.638 108.47 102.353 97.3714 90.5874 80.7657C84.831 72.6419 80.5647 64.7895 77.3828 57.8287L77.3824 57.829Z" fill="#EA9127" stroke="white" stroke-width="20" stroke-linejoin="round"/>
<path d="M33.9585 10.0089C31.9521 12.7758 29.8337 16.1129 27.8748 20.0359C24.6961 26.4006 22.9334 32.3137 21.9179 37.0409C22.3173 35.6517 24.4388 28.7866 30.8665 25.8026C38.1959 22.4003 48.23 25.3891 54.2216 33.7804C51.3846 28.8642 47.4213 23.1011 41.919 17.3447C39.2066 14.5066 36.5101 12.0777 33.9581 10.0088L33.9585 10.0089Z" fill="#903518" stroke="white" stroke-width="20" stroke-linejoin="round"/>
<path d="M171.033 28.7296C172.27 31.8861 173.478 35.6856 174.332 40.0616C175.736 47.2623 175.702 53.5659 175.287 58.3219C175.307 57.0763 175.31 49.3507 169.56 44.529C163.374 39.3419 153.007 39.5892 145.224 46.0468C148.986 42.2677 154.076 37.9029 160.673 33.9475C164.34 31.7492 167.849 30.0507 171.033 28.7296L171.033 28.7296Z" fill="#903518" stroke="white" stroke-width="20" stroke-linejoin="round"/>
<path d="M109.906 212.107C120.24 198.995 130.574 185.882 140.908 172.77C132.133 180.639 114.431 194.312 88.2569 200.737C71.2832 204.903 56.5674 204.592 46.5265 203.535C53.7313 207.162 65.2636 211.864 80.1425 213.465C92.3906 214.784 102.709 213.55 109.906 212.107Z" fill="#CC5520" stroke="white" stroke-width="20" stroke-linejoin="round"/>
<path d="M32.8551 9.99847C29.1772 15.3081 24.1802 23.9236 21.311 35.5271C19.0887 44.5153 18.8679 52.3659 19.1582 58.0433C25.1314 56.5377 31.7104 55.1517 38.8412 54.0461C46.5977 52.8436 53.8406 52.1539 60.446 51.8027C58.9023 46.1591 56.1535 38.5135 51.0686 30.378C44.947 20.5826 37.8923 14.0013 32.8547 9.99844L32.8551 9.99847Z" fill="#EA9127"/>
<path d="M170.034 28.7297C164.505 31.03 156.614 35.0471 148.601 41.9879C140.454 49.0441 135.305 56.4159 132.239 61.6148C138.299 63.6565 144.853 66.1633 151.751 69.2561C158.612 72.3322 164.814 75.5407 170.346 78.6897C172.261 73.0665 174.512 64.3025 174.406 53.4206C174.304 42.8037 171.997 34.2655 170.034 28.7297L170.034 28.7297Z" fill="#EA9127"/>
<path d="M17.9948 65.8441C16.1904 74.9798 14.716 86.3248 14.719 99.3655C14.7214 113.265 16.4012 125.277 18.3978 134.8C28.0863 117.075 38.9346 106.477 47.4696 99.9452C55.2546 93.9869 63.6624 89.4619 67.9567 79.1784C71.255 71.2798 70.6998 63.4017 69.6222 57.7774C62.8979 57.7973 55.3334 58.2122 47.1175 59.3184C35.9299 60.8247 26.1471 63.2609 17.9948 65.8441Z" fill="#E39334"/>
<path d="M76.3836 57.8245C77.0778 61.4524 77.7517 67.4106 76.3688 74.5179C75.8422 77.226 74.6204 83.2035 70.5413 89.3372C65.3876 97.0876 60.7116 97.5091 49.026 108.529C46.0282 111.356 43.7213 113.794 42.2994 115.343C56.7665 124.526 71.2332 133.709 85.7002 142.892C93.4713 139.72 129.214 124.213 138.665 89.5363C140.03 84.5306 141.034 78.4364 140.933 71.3117C131.58 67.5257 119.911 63.6863 106.213 61.0631C95.1143 58.9379 85.0285 58.0602 76.3832 57.8252L76.3836 57.8245Z" fill="#F6D365"/>
<path d="M169.943 85.663C170.029 90.8399 169.823 96.413 169.181 102.316C166.819 124.022 159.504 141.481 152.775 153.765C152.854 152.741 153.555 140.835 143.841 133.025C134.575 125.575 123.725 128.197 122.563 128.5C127.217 124.241 133.392 117.571 138.534 108.091C146.051 94.2326 147.615 81.267 147.934 73.9338C155.271 77.8437 162.607 81.7535 169.943 85.6634L169.943 85.663Z" fill="#EA9127"/>
<path d="M19.4248 142.118C28.1257 162.59 36.8267 183.062 45.5281 203.534C52.2156 206.918 62.5334 211.173 75.7704 213.065C89.7346 215.06 101.377 213.629 108.907 212.106C122.695 194.618 136.483 177.131 150.271 159.643C146.288 160.301 141.085 160.964 134.97 161.221C129.811 161.437 123.526 161.384 115.354 160.523C99.1002 158.812 98.4921 156.338 83.3886 154.306C69.7938 152.478 69.5334 154.38 54.1152 152.059C44.9328 150.677 38.0856 148.958 31.991 146.971C26.8385 145.29 22.5803 143.535 19.4251 142.118L19.4248 142.118Z" fill="#F6D365"/>
<path d="M77.7807 149.654C74.1324 146.655 69.1546 142.713 63.0366 138.303C59.7576 135.94 57.1708 134.178 54.3501 132.259C50.1849 129.425 44.732 125.795 38.2058 121.663C37.0632 123.472 35.1155 127.091 34.639 132.075C34.221 136.447 35.1186 139.949 35.782 141.913C41.1107 142.25 46.8747 142.852 52.9938 143.837C62.2725 145.33 70.5733 147.414 77.781 149.654L77.7807 149.654Z" fill="#532322"/>
<path d="M90.9539 151.448C98.857 147.945 107.488 144.49 116.825 141.261C123.551 138.935 130.049 136.932 136.266 135.203C136.891 137.252 137.877 141.493 136.785 146.659C135.932 150.693 134.167 153.612 132.988 155.258C127.751 154.121 121.984 153.125 115.738 152.424C106.612 151.4 98.2725 151.207 90.9539 151.448Z" fill="#532322"/>
<path d="M52.7229 214.52C58.5946 216.67 66.2009 218.875 75.2449 220.1C84.3965 221.339 92.3987 221.221 98.6749 220.693C89.7778 228.455 80.881 236.217 71.9842 243.978C65.5638 234.159 59.143 224.34 52.7229 214.52Z" fill="#532322"/>
<path d="M90.7834 151.465C95.1049 149.56 100.961 147.106 108.041 144.508C111.836 143.116 114.801 142.116 118.035 141.028C122.81 139.421 129.04 137.395 136.438 135.175C137.051 137.224 137.952 141.234 137.067 146.162C136.291 150.486 134.483 153.616 133.316 155.328C128.093 154.217 122.38 153.243 116.222 152.543C106.884 151.481 98.3287 151.251 90.784 151.466L90.7834 151.465Z" fill="#532322"/>
<path d="M18.3963 134.799C15.5711 119.941 13.8673 101.808 15.7298 81.4033C16.2309 75.9132 16.9514 70.6865 17.8255 65.74C25.7855 63.2808 35.2504 60.9641 46.0199 59.4696C54.6635 58.2701 62.601 57.8146 69.621 57.7773C67.8691 60.7295 64.906 65.2379 60.4199 69.9684C47.4364 83.6607 35.9068 84.2339 27.5891 92.2294C21.4093 98.1704 15.3981 109.752 18.3966 134.799L18.3963 134.799Z" fill="#CC5520"/>
<path d="M124.745 115.487C118.282 113.321 107.353 108.674 97.1606 98.6695C81.3114 83.1141 77.4561 64.6352 76.381 57.8246C85.3792 58.0691 96.052 59.0141 107.868 61.3885C120.879 64.0027 131.986 67.6892 140.931 71.3111C140.99 76.1529 140.545 82.4818 138.598 89.5852C135.2 101.984 128.894 110.659 124.745 115.486L124.745 115.487Z" fill="#CC5520"/>
<path d="M147.931 73.9334C155.267 77.8433 162.603 81.7531 169.939 85.663C170.047 93.4831 169.51 102.904 167.486 113.376C164.145 130.663 158.01 144.316 152.772 153.765C154.396 150.442 167.052 123.561 153.749 102.686C151.843 99.695 149.022 96.2274 144.774 92.9484C145.381 90.8841 145.945 88.6538 146.427 86.2658C147.337 81.761 147.77 77.6046 147.931 73.9338L147.931 73.9334Z" fill="#CC5520"/>
<path d="M132.239 61.6148C135.204 56.5925 139.899 49.8982 147.044 43.3732C155.575 35.5828 164.15 31.1828 170.034 28.7297C171.893 33.9883 173.845 41.3256 174.304 50.2294C174.937 62.5262 172.447 72.4766 170.346 78.6894C170.336 70.0102 165.555 62.0626 157.982 58.1803C149.675 53.922 139.407 55.2722 132.239 61.6148Z" fill="#CC5520"/>
<path d="M19.1604 58.0435C18.8663 52.2953 19.0903 44.1866 21.4769 34.8788C24.3716 23.5891 29.2525 15.199 32.8573 9.99867C37.3514 13.5683 43.0287 18.8542 48.315 26.2575C55.2739 36.0034 58.6929 45.4091 60.4486 51.803C55.2737 43.2486 45.3192 38.9558 35.9656 41.1051C27.7369 42.9959 21.2107 49.5878 19.1608 58.0435L19.1604 58.0435Z" fill="#CC5520"/>
<path d="M45.528 203.534C36.8271 183.062 28.1261 162.59 19.4248 142.118C23.8492 152.644 29.603 158.813 33.7753 162.388C59.6845 184.584 102.716 173.655 125.046 167.959C136.306 165.087 145.105 161.766 150.217 159.689C136.447 177.161 122.677 194.633 108.907 212.106C101.527 213.599 90.2598 214.989 76.7449 213.197C62.9782 211.372 52.3031 206.963 45.5277 203.534L45.528 203.534Z" fill="#EA9127"/>
<path d="M76.3824 57.829C77.1946 61.7655 78.0204 68.5217 76.0797 76.4634C75.4345 79.1042 74.1045 85.1723 69.4002 90.9459C65.7149 95.4685 63.0879 96.778 56.6929 101.896C53.0003 104.852 47.9174 109.259 42.299 115.346C47.6706 118.073 54.0177 120.692 61.3122 122.658C86.0197 129.32 107.64 124.742 119.479 121.139C121.235 119.256 122.99 117.374 124.746 115.49C114.638 108.47 101.353 97.3714 89.5874 80.7657C83.831 72.6419 79.5647 64.7895 76.3828 57.8287L76.3824 57.829Z" fill="#EA9127"/>
<path d="M32.9585 10.0089C30.9521 12.7758 28.8337 16.1129 26.8748 20.0359C23.6961 26.4006 21.9334 32.3137 20.9179 37.0409C21.3173 35.6517 23.4388 28.7866 29.8665 25.8026C37.1959 22.4003 47.23 25.3891 53.2216 33.7804C50.3846 28.8642 46.4213 23.1011 40.919 17.3447C38.2066 14.5066 35.5101 12.0777 32.9581 10.0088L32.9585 10.0089Z" fill="#903518"/>
<path d="M170.033 28.7296C171.27 31.8861 172.478 35.6856 173.332 40.0616C174.736 47.2623 174.702 53.5659 174.287 58.3219C174.307 57.0763 174.31 49.3507 168.56 44.529C162.374 39.3419 152.007 39.5892 144.224 46.0468C147.986 42.2677 153.076 37.9029 159.673 33.9475C163.34 31.7492 166.849 30.0507 170.033 28.7296L170.033 28.7296Z" fill="#903518"/>
<path d="M108.906 212.107C119.24 198.995 129.574 185.882 139.908 172.77C131.133 180.639 113.431 194.312 87.2569 200.737C70.2832 204.903 55.5674 204.592 45.5265 203.535C52.7313 207.162 64.2636 211.864 79.1425 213.465C91.3906 214.784 101.709 213.55 108.906 212.107Z" fill="#CC5520"/>
</svg>
