<svg width="74" height="70" viewBox="0 0 74 70" fill="none" xmlns="http://www.w3.org/2000/svg">
<path d="M37 -1.61732e-06C16.5611 -2.51074e-06 -6.84777e-07 15.6659 -1.5299e-06 35C-2.37502e-06 54.3341 16.5611 70 37 70C57.4389 70 74 54.3341 74 35C74 15.6659 57.4389 -7.23907e-07 37 -1.61732e-06ZM44.7202 48.6466C46.0543 49.9087 46.0543 51.9784 44.7202 53.2404C44.0442 53.8798 43.1726 54.1827 42.301 54.1827C41.4293 54.1827 40.5399 53.863 39.8639 53.2236L23.1428 37.3558C21.9154 36.0769 21.951 34.1082 23.2495 32.8798L39.8639 18.0986C41.1981 16.8365 43.3683 16.8197 44.7202 18.0986C46.0543 19.3606 46.0721 21.4135 44.7202 22.6923L30.5072 35.0168L44.7202 48.6466Z" fill="white" fill-opacity="0.5"/>
</svg>
