<svg width="74" height="70" viewBox="0 0 74 70" fill="none" xmlns="http://www.w3.org/2000/svg">
<path d="M37 70C57.4389 70 74 54.3341 74 35C74 15.6659 57.4389 6.84953e-07 37 4.41221e-07C16.5611 1.97489e-07 6.47928e-07 15.6659 4.17371e-07 35C1.86814e-07 54.3341 16.5611 70 37 70ZM29.2798 21.3534C27.9457 20.0913 27.9457 18.0216 29.2798 16.7596C29.9558 16.1202 30.8274 15.8173 31.699 15.8173C32.5707 15.8173 33.4601 16.137 34.1361 16.7764L50.8572 32.6442C52.0846 33.9231 52.049 35.8918 50.7505 37.1202L34.1361 51.9014C32.8019 53.1635 30.6317 53.1803 29.2798 51.9014C27.9457 50.6394 27.9279 48.5865 29.2798 47.3077L43.4928 34.9832L29.2798 21.3534Z" fill="white" fill-opacity="0.5"/>
</svg>
